<?xml version="1.0" encoding="utf-8"?>
<!-- Generator: Adobe Illustrator 26.2.1, SVG Export Plug-In . SVG Version: 6.00 Build 0)  -->
<svg version="1.1" id="a" xmlns="http://www.w3.org/2000/svg" xmlns:xlink="http://www.w3.org/1999/xlink" x="0px" y="0px"
	 viewBox="0 0 1113.6 587.4" style="enable-background:new 0 0 1113.6 587.4;" xml:space="preserve">
<style type="text/css">
	.st0{fill:url(#Path_11_00000049194667930026998310000018145621654472590266_);}
	.st1{fill:url(#Path_12_00000047742722138692343480000006424397842574159234_);}
	.st2{fill:url(#Path_13_00000024712279122477765220000014341810974082262198_);}
	.st3{fill:url(#Path_14_00000027571573094582397070000015485675039173916809_);}
</style>
<g>
	<g id="Group_1_00000078038047883920945140000008209714270350969489_" transform="translate(288.449 191.091)">
		<path id="Path_1_00000173844022322307798270000012807558350560262840_" d="M62.7,18.5c-0.8-0.6-1.3-1.5-1.3-2.6
			c0-2,1.1-3.1,3.4-3.3l2.5-0.2c2.5-0.1,4.2-0.8,5.5-2.2c1.2-1.4,1.8-3.4,1.8-6.4v-35.6c0-1.1,0.4-2.1,1.1-2.9
			c1.7-1.5,4.2-1.5,5.9,0c0.7,0.8,1.2,1.8,1.1,2.9V4c0,4.8-1.2,8.5-3.4,10.9c-2.2,2.4-5.8,3.8-10.4,4.1l-2.5,0.2
			C64.6,19.2,63.5,19,62.7,18.5z"/>
		<path id="Path_2_00000114070182104715501880000008788573366313506232_" d="M100.2,13.7c-3.8-3.7-5.7-9.2-5.7-16.5v-29
			c-0.1-1.1,0.4-2.2,1.1-3c1.7-1.4,4.1-1.4,5.8,0c0.8,0.8,1.2,1.9,1.1,3v29.6c0,4.9,1.2,8.7,3.6,11.2c2.5,2.6,6,3.8,10.8,3.8
			c4.7,0,8.4-1.3,10.8-3.8c2.5-2.6,3.6-6.3,3.6-11.2v-29.5c0-1.1,0.4-2.1,1.1-2.9c0.8-0.8,1.8-1.2,2.9-1.1c1.1,0,2.1,0.3,2.9,1.1
			c0.8,0.8,1.2,1.9,1.1,3v29c0,7.2-1.9,12.6-5.7,16.5c-3.8,3.7-9.4,5.6-16.8,5.6C109.6,19.3,103.9,17.5,100.2,13.7z"/>
		<path id="Path_3_00000010302748375548576060000004553870618358234017_" d="M158.1,17.8c-3.5-1.1-6.4-2.6-8.6-4.4
			c-1-0.8-1.5-1.9-1.5-3.2c0-0.9,0.3-1.7,0.8-2.4c0.4-0.6,1.2-1,1.9-1s1.6,0.3,2.7,1c4.6,3.4,10.1,5.1,15.9,5c4.1,0,7.4-0.8,9.7-2.3
			c2.3-1.6,3.4-3.7,3.4-6.6c0-2.3-1.1-3.9-3.2-5c-2.1-1.1-5.4-2.2-10-3.3c-4.3-0.9-8-2-10.8-3.2s-5-2.8-6.6-4.8s-2.4-4.5-2.4-7.7
			c0-3,0.9-5.9,2.7-8.3c1.8-2.5,4.1-4.3,7.3-5.6c3.2-1.4,6.7-2.1,10.7-2.1c3.4,0,6.9,0.5,10.2,1.6c3,0.9,5.7,2.5,8,4.5
			c1,0.8,1.6,1.9,1.6,3.2c0,0.9-0.3,1.7-0.8,2.3s-1.2,1-1.9,1s-1.6-0.3-2.6-1c-2.1-1.6-4.3-2.9-6.8-3.8c-2.1-0.8-4.6-1.2-7.6-1.2
			c-4,0-7.2,0.8-9.4,2.4c-2.3,1.6-3.3,3.8-3.3,6.7c0,2.5,1,4.3,3,5.5c2,1.3,5.1,2.4,9.6,3.4c3.7,0.8,7.5,1.9,11.1,3.2
			c2.9,1.1,5.1,2.6,6.8,4.5s2.6,4.3,2.6,7.4c0,3-0.9,5.8-2.7,8.2s-4.2,4.2-7.4,5.5s-6.8,2-10.9,2C165.6,19.3,161.9,18.9,158.1,17.8z
			"/>
		<path id="Path_4_00000118378448776042501710000005053561517200194239_" d="M212.8,18c-0.8-0.8-1.2-1.8-1.2-2.9v-43.7h-15.7
			c-2.5,0-3.7-1.1-3.7-3.3c-0.1-0.9,0.3-1.9,1-2.5s1.6-0.9,2.8-0.9h39.4c1.2,0,2.2,0.3,2.8,0.9c0.7,0.6,1.1,1.6,1,2.5
			c0,2.2-1.3,3.3-3.7,3.3h-15.7v43.7c0,1.1-0.4,2.1-1.1,2.9C217.1,19.4,214.6,19.4,212.8,18L212.8,18z"/>
	</g>
	<g id="Group_2_00000111909580526777111510000005208693027452894855_" transform="translate(794.783 191.091)">
		<path id="Path_5_00000103260047522925542830000015525373204742500541_" d="M-350.9,137.9c-2.4-3.8-5.2-7.2-8.6-10.1
			c-1.5-1.2-3-2.3-4.6-3.2c9.3-2.3,16.8-6.4,22.3-12.2c6.5-7,9.9-16.3,9.9-27.5c0-13.5-4.3-23.9-12.9-31c-8.5-7-20.9-10.5-36.9-10.5
			h-50c-3.3-0.2-6.3,1-8.7,3.2c-2.2,2.2-3.3,5.2-3.3,8.4v119.2c-0.1,3.3,1.1,6.3,3.4,8.7c4.5,4.8,12,5,16.8,0.6
			c2.6-2.4,3.9-5.7,3.7-9.2v-46.2h21c5.3,0,9.6,0.9,12.8,2.7s6.3,4.9,9.3,9.4l26.9,40.8c2.3,3.5,6.2,5.7,10.4,5.6
			c2.9,0,5.6-1,7.8-2.9c2.3-1.8,3.5-4.4,3.5-7.2c0-2.3-0.7-4.5-2.1-6.4L-350.9,137.9z M-384.2,108.1H-420V62.8h35.8
			c10.1,0,17.5,1.9,22.2,5.4c4.5,3.5,6.8,9.3,6.8,17s-2.4,13.6-6.9,17.2C-366.8,106.2-374.3,108.1-384.2,108.1L-384.2,108.1z"/>
		<path id="Path_6_00000041988392247834244430000013390132703653258402_" d="M-226.7,62.8c3.4,0,6.2-0.8,8.2-2.5
			c2.1-1.8,3.3-4.4,3.2-7.3c0.1-2.8-1-5.5-3.1-7.3c-2-1.7-4.7-2.6-8.3-2.6h-73.8c-3.3-0.2-6.3,1-8.7,3.2c-2.2,2.2-3.4,5.2-3.3,8.4
			v118.6c-0.1,3.1,1,6.1,3.3,8.4c2.4,2.2,5.5,3.4,8.7,3.2h73.8c3.4,0,6.2-0.9,8.3-2.6c2.1-1.9,3.3-4.5,3.1-7.3
			c0-3.6-1.5-9.7-11.3-9.7h-62.1v-42.4h58c3.4,0,6.3-0.9,8.3-2.6c4-3.9,4.1-10.4,0.2-14.5c-0.1-0.1-0.1-0.1-0.2-0.2
			c-2-1.7-4.7-2.6-8.3-2.6h-58V62.8L-226.7,62.8L-226.7,62.8z"/>
		<path id="Path_7_00000059292631820706866860000010785660968328060068_" d="M-81.5,42c-4.4-0.2-8.5,2.5-10.1,6.5l-47.6,104.2
			l-47.6-104.2c-1.8-4-5.9-6.6-10.3-6.4c-3.1,0-6,1-8.4,2.9c-2.5,1.8-3.9,4.7-3.9,7.8c0.1,1.6,0.5,3.1,1.2,4.4l56.4,121.1
			c1.1,2.4,2.9,4.4,5.2,5.7s4.8,2,7.4,2s5.1-0.7,7.3-2c2.3-1.3,4-3.3,5.1-5.6l56.6-121.2c0.7-1.4,1.1-2.9,1.1-4.3
			c0-3-1.4-5.8-3.8-7.7C-75.5,43.1-78.5,42-81.5,42z"/>
		<path id="Path_8_00000127037444642493587510000006555478425431203458_" d="M-47.4,42.2C-53.7,41.9-59,46.7-59.3,53
			c0,0.4,0,0.7,0,1.1v119.8c-0.1,3.3,1.1,6.3,3.3,8.7c2.4,2.2,5.4,3.3,8.6,3.3c3.8,0,6.8-1.1,9-3.3c2.2-2.4,3.4-5.4,3.2-8.6V54
			c0.1-3.3-1.1-6.3-3.3-8.7C-40.9,43.2-44.2,42-47.4,42.2z"/>
		<path id="Path_9_00000160182934350074194250000000519181063831984297_" d="M74.4,62.8c3.4,0,6.2-0.8,8.2-2.5
			c2.1-1.8,3.3-4.4,3.2-7.3c0.1-2.8-1-5.5-3.1-7.3c-2-1.7-4.7-2.6-8.3-2.6H0.6c-3.3-0.2-6.3,1-8.7,3.2c-2.2,2.2-3.3,5.2-3.3,8.4
			v118.6c-0.1,3.1,1,6.1,3.3,8.4c2.4,2.2,5.5,3.4,8.7,3.2h73.8c3.4,0,6.3-0.9,8.3-2.6c2.1-1.9,3.3-4.5,3.1-7.3
			c0-3.6-1.5-9.7-11.3-9.7H12.4v-42.4h58c3.4,0,6.2-0.9,8.3-2.6c4-3.9,4.1-10.4,0.2-14.5c-0.1-0.1-0.1-0.1-0.2-0.2
			c-2-1.7-4.7-2.6-8.3-2.6h-58V62.8L74.4,62.8L74.4,62.8z"/>
		<path id="Path_10_00000021109141092504515930000016545586764401135028_" d="M301,44.9c-2.2-1.9-4.9-2.9-7.8-2.9
			c-2.3,0-4.4,0.6-6.3,1.9c-2,1.4-3.4,3.3-4.2,5.5l-36.1,100.8l-35.5-99.7c-1-2.4-2.6-4.4-4.5-5.9c-4.1-2.9-9.6-2.9-13.7-0.1
			c-2.2,1.4-3.7,3.4-4.5,5.9l-36.1,98.8l-35.5-99.9c-0.8-2.3-2.4-4.2-4.4-5.5c-2-1.2-4.1-1.9-6.4-1.9c-3.1-0.1-5.9,1-8.3,2.9
			s-3.6,4.6-3.6,7.7c0,1.6,0.3,3.1,0.9,4.4l44.3,121.2c1,2.5,2.8,4.5,5,5.9c4.5,2.7,10.1,2.7,14.7,0c2.3-1.3,4-3.4,4.9-5.9
			l35.7-96.8l34.9,96.8c0.9,2.6,2.7,4.6,4.9,6c2.2,1.3,4.7,2,7.3,2c2.7,0,5.2-0.7,7.5-2c2.4-1.4,4.1-3.4,5.1-6l44.2-121
			c0.7-1.5,1-3.1,1-4.6C304.5,49.6,303.2,46.7,301,44.9z"/>
	</g>
	<g id="Group_4_00000106842688775259322870000009545877099240709261_">
		<g id="Group_3_00000145759216862827501500000011814912643452502924_">
			
				<linearGradient id="Path_11_00000052821633747050954100000015844661833416689285_" gradientUnits="userSpaceOnUse" x1="-3544.9934" y1="2844.7869" x2="-3543.6487" y2="2843.8125" gradientTransform="matrix(402.4992 0 0 555.3842 1426749 -1579298.625)">
				<stop  offset="0" style="stop-color:#30C2E3"/>
				<stop  offset="0.525" style="stop-color:#CD3D95"/>
				<stop  offset="1" style="stop-color:#F9A533"/>
			</linearGradient>
			
				<path id="Path_11_00000051355958893775511110000012017680360699016378_" style="fill:url(#Path_11_00000052821633747050954100000015844661833416689285_);" d="
				M455.2,96.2l-35.9-70C412,12.3,399.2,4.6,382.5,4.3c-1.8,0-3.4,0.1-5.2,0.4c-9.8,1.3-11.5,2.6-17,6.9l0,0L222,143l0,0l-54.9,7.6
				c-10.4,1.6-18.9,6.2-25.2,13.7l0,0l-77.1,74.2c-5.9,5.7-6.6,15.2-0.8,21c6,6,15.8,6.1,22,0.3l0.8-0.7c6-5.5,12.2-2.4,18.1,3.4
				c5.7,5.4,6,14.5,0.6,20.2c-0.1,0.1-0.2,0.2-0.3,0.4l-17.9,17.2c-5.9,5.7-6.6,15.2-0.8,21c6,6,15.8,6.1,22,0.3l30.3-29.1
				c6.1-4.6,14.7-4.1,20.3,1.1c5.7,5.4,6,14.5,0.6,20.2c-0.2,0.2-0.3,0.3-0.5,0.5l-9,8.7c-5.9,5.7-6.6,15.2-0.8,21
				c6,6,15.8,6.1,22,0.3l2.7-2.6c6.1-5.5,15.5-5.5,21.4,0.2c5.7,5.4,6,14.5,0.6,20.2c-0.1,0.1-0.2,0.2-0.3,0.3l-37.5,36.1
				c-5.1,4.9-6.5,12.6-2.6,18.5c4.8,7.2,14.5,9.2,21.7,4.3c0.3-0.2,0.6-0.4,0.9-0.6l-0.7,0.7l0.1,0.1l0.1-0.1
				c5.1-4.9,13.4-6.2,19.4-2.4c6.3,3.7,8.8,11.7,5.6,18.4l-1.8,2.8l-0.8,1l-35.5,34.1c-5.7,5.4-6,14.5-0.5,20.3
				c0.3,0.3,0.6,0.6,0.9,0.8c6.1,5.6,15.9,4.9,21.9-0.8l4.9-4.7c6.1-5.6,15.5-5.5,21.5,0.2c5.7,5.4,6,14.5,0.6,20.2
				c-0.2,0.2-0.4,0.4-0.6,0.6l-15,14.4c-5.9,5.7-6.6,15.2-0.8,21c6,6,15.8,6.1,22,0.3l11.3-10.3l136.7-122.2
				c6-4.3,7.9-10.6,4.7-16.4c-3.3-5.8-10.5-8.1-16.6-5l-95,46.7l-0.2,0.1c-4.6,2.5-9.1,2.7-14.4,0.6c-2-0.7-3.6-2-4.9-3.5
				c-3.3-4.1-4.5-8.3-3.7-12.9l23.4-130.9c0,0,0,0,0-0.1l-98.8-92.2c-3-2.6-4.7-6.2-4.9-10.1c-0.2-4.1,1.2-8.1,3.8-11.2
				c2.5-3.2,6.2-5.2,10.1-5.7L307,155.4c0,0,0,0,0.1,0l60.7-118.3c3-5.6,7-8.2,13.6-8.8c0.9-0.1,1.7-0.1,2.6,0
				c6.6,0.6,10.6,3.2,13.6,8.8l36.1,70.4c3.3,6.1,10.8,8.4,16.9,5.1c0.5-0.3,1.1-0.6,1.6-1C456.5,107.7,457.9,101.4,455.2,96.2z"/>
			
				<linearGradient id="Path_12_00000114052452125642790500000012426526406536081580_" gradientUnits="userSpaceOnUse" x1="-3474.834" y1="2912.9092" x2="-3462.0781" y2="2899.6313" gradientTransform="matrix(42.4317 0 0 40.7615 147225.0156 -118193.7266)">
				<stop  offset="0" style="stop-color:#30C2E3"/>
				<stop  offset="0.525" style="stop-color:#CD3D95"/>
				<stop  offset="1" style="stop-color:#F9A533"/>
			</linearGradient>
			
				<path id="Path_12_00000096771937103489303290000017331855148676279690_" style="fill:url(#Path_12_00000114052452125642790500000012426526406536081580_);" d="
				M52.3,271.1L52.3,271.1c4.9,4.6,5.1,12.4,0.5,17.3c-0.2,0.2-0.3,0.3-0.5,0.5l-15.6,15c-5.2,4.9-13.4,4.9-18.5,0l0,0
				c-4.9-4.6-5.1-12.4-0.5-17.3c0.2-0.2,0.3-0.3,0.5-0.5l15.6-15C39,266.2,47.1,266.2,52.3,271.1z"/>
			
				<linearGradient id="Path_13_00000097478050833194806350000017918576094773760439_" gradientUnits="userSpaceOnUse" x1="-3474.9897" y1="2913.0186" x2="-3462.2344" y2="2899.7415" gradientTransform="matrix(42.4292 0 0 40.7598 147307.7344 -118108.4375)">
				<stop  offset="0" style="stop-color:#30C2E3"/>
				<stop  offset="0.525" style="stop-color:#CD3D95"/>
				<stop  offset="1" style="stop-color:#F9A533"/>
			</linearGradient>
			
				<path id="Path_13_00000162341997354456848940000008895279372466031500_" style="fill:url(#Path_13_00000097478050833194806350000017918576094773760439_);" d="
				M142.6,350.4L142.6,350.4c4.9,4.6,5.1,12.4,0.5,17.3c-0.2,0.2-0.3,0.3-0.5,0.5l-15.6,15c-5.2,4.9-13.4,4.9-18.5,0l0,0
				c-4.9-4.6-5.1-12.4-0.5-17.3c0.2-0.2,0.3-0.3,0.5-0.5l15.6-15C129.3,345.4,137.5,345.4,142.6,350.4z"/>
			
				<linearGradient id="Path_14_00000085240604147485397960000015218607292678953382_" gradientUnits="userSpaceOnUse" x1="-3450.5483" y1="2931.5889" x2="-3434.1606" y2="2914.5312" gradientTransform="matrix(33.026 0 0 31.7265 113950.2266 -92257.7031)">
				<stop  offset="0" style="stop-color:#30C2E3"/>
				<stop  offset="0.525" style="stop-color:#CD3D95"/>
				<stop  offset="1" style="stop-color:#F9A533"/>
			</linearGradient>
			
				<path id="Path_14_00000102513860884633782860000016291716110281052316_" style="fill:url(#Path_14_00000085240604147485397960000015218607292678953382_);" d="
				M188.7,555.6L188.7,555.6c4.9,4.6,5.1,12.4,0.5,17.3c-0.2,0.2-0.3,0.3-0.5,0.5l-6.3,6c-5.2,4.9-13.4,4.9-18.5,0l0,0
				c-4.9-4.6-5.1-12.4-0.5-17.3c0.2-0.2,0.3-0.3,0.5-0.5l6.3-6C175.4,550.7,183.5,550.7,188.7,555.6z"/>
		</g>
	</g>
</g>
</svg>
